<?xml version="1.0" encoding="iso-8859-1"?>
<!-- Generator: Adobe Illustrator 19.0.0, SVG Export Plug-In . SVG Version: 6.00 Build 0)  -->
<svg version="1.1" id="Capa_1" xmlns="http://www.w3.org/2000/svg" xmlns:xlink="http://www.w3.org/1999/xlink" x="0px" y="0px"
	 viewBox="0 0 512.001 512.001" style="enable-background:new 0 0 512.001 512.001;" xml:space="preserve">
<path style="fill:#787780;" d="M367.123,335.822l-18.879,18.879l-47.302-4.879l-69.363-69.363l-80.604-81.029l6.364-35.636
	l18.879-18.879c12.091-12.091,29.697-16.546,45.818-11.03l32.03,10.818c18.03,6.153,38.181,0.001,49.635-14.847l79.122-102.028
	c13.787-17.606,34.574-27.787,57.06-27.787c19.726,0.212,37.967,8.272,50.907,21.212c12.94,12.94,21.001,31.182,21.214,50.908
	c-0.212,22.273-10.181,42.848-28,56.847l-101.604,79.121c-15.061,11.666-21.212,31.818-15.06,49.848l10.393,31.605
	C383.246,306.126,379.003,323.52,367.123,335.822z"/>
<path style="fill:#57555C;" d="M367.123,335.822l-18.879,18.879l-47.302-4.879l-69.363-69.363L490.786,21.253
	c12.94,12.94,21.001,31.182,21.214,50.908c-0.212,22.273-10.181,42.848-28,56.847l-101.604,79.121
	c-15.061,11.666-21.212,31.818-15.06,49.848l10.393,31.605C383.246,306.126,379.003,323.52,367.123,335.822z"/>
<path style="fill:#E1E4FB;" d="M443.698,89.554c-5.728,5.728-15.484,5.728-21.212,0c-5.939-5.939-5.728-15.484,0-21.212
	c5.939-5.939,15.273-5.939,21.212,0C449.425,74.069,449.636,83.616,443.698,89.554z"/>
<path style="fill:#C5C9F7;" d="M422.485,89.554l21.212-21.212c5.728,5.728,5.939,15.273,0,21.212
	C437.97,95.282,428.213,95.282,422.485,89.554z"/>
<path style="fill:#FEDBAB;" d="M348.244,354.701L219.066,483.879l-82.3-13.574c0,0-20.578-26.09-41.789-53.241
	c-22.695-29.06-46.242-59.393-46.24-60.665l2.544-86.544l106.059-106.059L348.244,354.701z"/>
<path style="fill:#FEC478;" d="M348.244,354.701L219.066,483.879l-82.3-13.574c0,0-20.578-26.09-41.789-53.241l157.815-157.815
	L348.244,354.701z"/>
<path style="fill:#00DA7C;" d="M233.489,469.456l-33.515,33.515c-12.091,12.091-30.545,11.878-42.847,0.001L8.645,354.49
	c-11.667-11.667-11.455-30.546,0.211-42.212l42.423-42.423c12.091-11.666,30.333-11.666,42.423,0
	c10.395,10.395,11.667,26.939,2.759,38.818l-11.666,11.666c-11.667,11.667-11.878,30.97,0,42.848
	c11.666,11.666,32.029,11.241,42.847-0.001l40.514-40.514c8.908-8.908,21.637-13.151,33.728-12.515
	c11.03,0.425,21.849,4.457,29.908,12.515c17.182,17.606,17.394,46.242,0,63.636l-40.726,40.726
	c-11.878,11.878-11.878,30.545-0.211,42.212C202.521,480.911,221.823,481.122,233.489,469.456z"/>
<path style="fill:#00B77B;" d="M233.489,469.456l-33.515,33.515c-12.091,12.091-30.545,11.878-42.847,0.001l-74.03-74.03
	l118.787-118.787c11.03,0.425,21.849,4.457,29.908,12.515c17.182,17.606,17.394,46.242,0,63.636l-40.726,40.726
	c-11.878,11.878-11.878,30.545-0.211,42.212C202.521,480.911,221.823,481.122,233.489,469.456z"/>
<g>
</g>
<g>
</g>
<g>
</g>
<g>
</g>
<g>
</g>
<g>
</g>
<g>
</g>
<g>
</g>
<g>
</g>
<g>
</g>
<g>
</g>
<g>
</g>
<g>
</g>
<g>
</g>
<g>
</g>
</svg>
